<mxfile host="app.diagrams.net" agent="Mozilla/5.0 (Windows NT 10.0; Win64; x64) AppleWebKit/537.36 (KHTML, like Gecko) Chrome/133.0.0.0 Safari/537.36 Edg/133.0.0.0" version="26.0.14">
  <diagram name="Страница — 1" id="CJBZarA-NDJ_xAcgPdQf">
    <mxGraphModel dx="1626" dy="747" grid="1" gridSize="10" guides="1" tooltips="1" connect="1" arrows="1" fold="1" page="1" pageScale="1" pageWidth="827" pageHeight="1169" math="0" shadow="0">
      <root>
        <mxCell id="0" />
        <mxCell id="1" parent="0" />
        <mxCell id="JJnIpTvMjLHZ9RGJ5QC8-97" value="Транспорт" style="shape=table;startSize=25;container=1;collapsible=0;childLayout=tableLayout;fixedRows=1;rowLines=1;fontStyle=1;align=center;resizeLast=1;" vertex="1" parent="1">
          <mxGeometry x="20" y="328" width="140" height="113" as="geometry" />
        </mxCell>
        <mxCell id="JJnIpTvMjLHZ9RGJ5QC8-98" style="shape=tableRow;horizontal=0;startSize=0;swimlaneHead=0;swimlaneBody=0;fillColor=none;collapsible=0;dropTarget=0;points=[[0,0.5],[1,0.5]];portConstraint=eastwest;top=0;left=0;right=0;bottom=0;" vertex="1" parent="JJnIpTvMjLHZ9RGJ5QC8-97">
          <mxGeometry y="25" width="140" height="22" as="geometry" />
        </mxCell>
        <mxCell id="JJnIpTvMjLHZ9RGJ5QC8-99" value="string" style="shape=partialRectangle;connectable=0;fillColor=none;top=0;left=0;bottom=0;right=0;align=left;spacingLeft=2;overflow=hidden;fontSize=11;" vertex="1" parent="JJnIpTvMjLHZ9RGJ5QC8-98">
          <mxGeometry width="36" height="22" as="geometry">
            <mxRectangle width="36" height="22" as="alternateBounds" />
          </mxGeometry>
        </mxCell>
        <mxCell id="JJnIpTvMjLHZ9RGJ5QC8-100" value="Номер" style="shape=partialRectangle;connectable=0;fillColor=none;top=0;left=0;bottom=0;right=0;align=left;spacingLeft=2;overflow=hidden;fontSize=11;" vertex="1" parent="JJnIpTvMjLHZ9RGJ5QC8-98">
          <mxGeometry x="36" width="104" height="22" as="geometry">
            <mxRectangle width="104" height="22" as="alternateBounds" />
          </mxGeometry>
        </mxCell>
        <mxCell id="JJnIpTvMjLHZ9RGJ5QC8-101" style="shape=tableRow;horizontal=0;startSize=0;swimlaneHead=0;swimlaneBody=0;fillColor=none;collapsible=0;dropTarget=0;points=[[0,0.5],[1,0.5]];portConstraint=eastwest;top=0;left=0;right=0;bottom=0;" vertex="1" parent="JJnIpTvMjLHZ9RGJ5QC8-97">
          <mxGeometry y="47" width="140" height="22" as="geometry" />
        </mxCell>
        <mxCell id="JJnIpTvMjLHZ9RGJ5QC8-102" value="date" style="shape=partialRectangle;connectable=0;fillColor=none;top=0;left=0;bottom=0;right=0;align=left;spacingLeft=2;overflow=hidden;fontSize=11;" vertex="1" parent="JJnIpTvMjLHZ9RGJ5QC8-101">
          <mxGeometry width="36" height="22" as="geometry">
            <mxRectangle width="36" height="22" as="alternateBounds" />
          </mxGeometry>
        </mxCell>
        <mxCell id="JJnIpTvMjLHZ9RGJ5QC8-103" value="Дата ТО" style="shape=partialRectangle;connectable=0;fillColor=none;top=0;left=0;bottom=0;right=0;align=left;spacingLeft=2;overflow=hidden;fontSize=11;" vertex="1" parent="JJnIpTvMjLHZ9RGJ5QC8-101">
          <mxGeometry x="36" width="104" height="22" as="geometry">
            <mxRectangle width="104" height="22" as="alternateBounds" />
          </mxGeometry>
        </mxCell>
        <mxCell id="JJnIpTvMjLHZ9RGJ5QC8-104" style="shape=tableRow;horizontal=0;startSize=0;swimlaneHead=0;swimlaneBody=0;fillColor=none;collapsible=0;dropTarget=0;points=[[0,0.5],[1,0.5]];portConstraint=eastwest;top=0;left=0;right=0;bottom=0;" vertex="1" parent="JJnIpTvMjLHZ9RGJ5QC8-97">
          <mxGeometry y="69" width="140" height="22" as="geometry" />
        </mxCell>
        <mxCell id="JJnIpTvMjLHZ9RGJ5QC8-105" value="string" style="shape=partialRectangle;connectable=0;fillColor=none;top=0;left=0;bottom=0;right=0;align=left;spacingLeft=2;overflow=hidden;fontSize=11;" vertex="1" parent="JJnIpTvMjLHZ9RGJ5QC8-104">
          <mxGeometry width="36" height="22" as="geometry">
            <mxRectangle width="36" height="22" as="alternateBounds" />
          </mxGeometry>
        </mxCell>
        <mxCell id="JJnIpTvMjLHZ9RGJ5QC8-106" value="ФИО водителя" style="shape=partialRectangle;connectable=0;fillColor=none;top=0;left=0;bottom=0;right=0;align=left;spacingLeft=2;overflow=hidden;fontSize=11;" vertex="1" parent="JJnIpTvMjLHZ9RGJ5QC8-104">
          <mxGeometry x="36" width="104" height="22" as="geometry">
            <mxRectangle width="104" height="22" as="alternateBounds" />
          </mxGeometry>
        </mxCell>
        <mxCell id="JJnIpTvMjLHZ9RGJ5QC8-107" style="shape=tableRow;horizontal=0;startSize=0;swimlaneHead=0;swimlaneBody=0;fillColor=none;collapsible=0;dropTarget=0;points=[[0,0.5],[1,0.5]];portConstraint=eastwest;top=0;left=0;right=0;bottom=0;" vertex="1" parent="JJnIpTvMjLHZ9RGJ5QC8-97">
          <mxGeometry y="91" width="140" height="22" as="geometry" />
        </mxCell>
        <mxCell id="JJnIpTvMjLHZ9RGJ5QC8-108" value="int" style="shape=partialRectangle;connectable=0;fillColor=none;top=0;left=0;bottom=0;right=0;align=left;spacingLeft=2;overflow=hidden;fontSize=11;" vertex="1" parent="JJnIpTvMjLHZ9RGJ5QC8-107">
          <mxGeometry width="36" height="22" as="geometry">
            <mxRectangle width="36" height="22" as="alternateBounds" />
          </mxGeometry>
        </mxCell>
        <mxCell id="JJnIpTvMjLHZ9RGJ5QC8-109" value="Грузоподъёмность" style="shape=partialRectangle;connectable=0;fillColor=none;top=0;left=0;bottom=0;right=0;align=left;spacingLeft=2;overflow=hidden;fontSize=11;" vertex="1" parent="JJnIpTvMjLHZ9RGJ5QC8-107">
          <mxGeometry x="36" width="104" height="22" as="geometry">
            <mxRectangle width="104" height="22" as="alternateBounds" />
          </mxGeometry>
        </mxCell>
        <mxCell id="JJnIpTvMjLHZ9RGJ5QC8-110" value="Водители" style="shape=table;startSize=25;container=1;collapsible=0;childLayout=tableLayout;fixedRows=1;rowLines=1;fontStyle=1;align=center;resizeLast=1;" vertex="1" parent="1">
          <mxGeometry x="20" y="160" width="180" height="69" as="geometry" />
        </mxCell>
        <mxCell id="JJnIpTvMjLHZ9RGJ5QC8-111" style="shape=tableRow;horizontal=0;startSize=0;swimlaneHead=0;swimlaneBody=0;fillColor=none;collapsible=0;dropTarget=0;points=[[0,0.5],[1,0.5]];portConstraint=eastwest;top=0;left=0;right=0;bottom=0;" vertex="1" parent="JJnIpTvMjLHZ9RGJ5QC8-110">
          <mxGeometry y="25" width="180" height="22" as="geometry" />
        </mxCell>
        <mxCell id="JJnIpTvMjLHZ9RGJ5QC8-112" value="string" style="shape=partialRectangle;connectable=0;fillColor=none;top=0;left=0;bottom=0;right=0;align=left;spacingLeft=2;overflow=hidden;fontSize=11;" vertex="1" parent="JJnIpTvMjLHZ9RGJ5QC8-111">
          <mxGeometry width="36" height="22" as="geometry">
            <mxRectangle width="36" height="22" as="alternateBounds" />
          </mxGeometry>
        </mxCell>
        <mxCell id="JJnIpTvMjLHZ9RGJ5QC8-113" value="ФИО" style="shape=partialRectangle;connectable=0;fillColor=none;top=0;left=0;bottom=0;right=0;align=left;spacingLeft=2;overflow=hidden;fontSize=11;" vertex="1" parent="JJnIpTvMjLHZ9RGJ5QC8-111">
          <mxGeometry x="36" width="144" height="22" as="geometry">
            <mxRectangle width="144" height="22" as="alternateBounds" />
          </mxGeometry>
        </mxCell>
        <mxCell id="JJnIpTvMjLHZ9RGJ5QC8-114" style="shape=tableRow;horizontal=0;startSize=0;swimlaneHead=0;swimlaneBody=0;fillColor=none;collapsible=0;dropTarget=0;points=[[0,0.5],[1,0.5]];portConstraint=eastwest;top=0;left=0;right=0;bottom=0;" vertex="1" parent="JJnIpTvMjLHZ9RGJ5QC8-110">
          <mxGeometry y="47" width="180" height="22" as="geometry" />
        </mxCell>
        <mxCell id="JJnIpTvMjLHZ9RGJ5QC8-115" value="string" style="shape=partialRectangle;connectable=0;fillColor=none;top=0;left=0;bottom=0;right=0;align=left;spacingLeft=2;overflow=hidden;fontSize=11;" vertex="1" parent="JJnIpTvMjLHZ9RGJ5QC8-114">
          <mxGeometry width="36" height="22" as="geometry">
            <mxRectangle width="36" height="22" as="alternateBounds" />
          </mxGeometry>
        </mxCell>
        <mxCell id="JJnIpTvMjLHZ9RGJ5QC8-116" value="Контактная информация" style="shape=partialRectangle;connectable=0;fillColor=none;top=0;left=0;bottom=0;right=0;align=left;spacingLeft=2;overflow=hidden;fontSize=11;" vertex="1" parent="JJnIpTvMjLHZ9RGJ5QC8-114">
          <mxGeometry x="36" width="144" height="22" as="geometry">
            <mxRectangle width="144" height="22" as="alternateBounds" />
          </mxGeometry>
        </mxCell>
        <mxCell id="JJnIpTvMjLHZ9RGJ5QC8-117" value="Грузоотправители" style="shape=table;startSize=25;container=1;collapsible=0;childLayout=tableLayout;fixedRows=1;rowLines=1;fontStyle=1;align=center;resizeLast=1;" vertex="1" parent="1">
          <mxGeometry x="226" y="339" width="126" height="91" as="geometry" />
        </mxCell>
        <mxCell id="JJnIpTvMjLHZ9RGJ5QC8-118" style="shape=tableRow;horizontal=0;startSize=0;swimlaneHead=0;swimlaneBody=0;fillColor=none;collapsible=0;dropTarget=0;points=[[0,0.5],[1,0.5]];portConstraint=eastwest;top=0;left=0;right=0;bottom=0;" vertex="1" parent="JJnIpTvMjLHZ9RGJ5QC8-117">
          <mxGeometry y="25" width="126" height="22" as="geometry" />
        </mxCell>
        <mxCell id="JJnIpTvMjLHZ9RGJ5QC8-119" value="string" style="shape=partialRectangle;connectable=0;fillColor=none;top=0;left=0;bottom=0;right=0;align=left;spacingLeft=2;overflow=hidden;fontSize=11;" vertex="1" parent="JJnIpTvMjLHZ9RGJ5QC8-118">
          <mxGeometry width="36" height="22" as="geometry">
            <mxRectangle width="36" height="22" as="alternateBounds" />
          </mxGeometry>
        </mxCell>
        <mxCell id="JJnIpTvMjLHZ9RGJ5QC8-120" value="Наименование" style="shape=partialRectangle;connectable=0;fillColor=none;top=0;left=0;bottom=0;right=0;align=left;spacingLeft=2;overflow=hidden;fontSize=11;" vertex="1" parent="JJnIpTvMjLHZ9RGJ5QC8-118">
          <mxGeometry x="36" width="90" height="22" as="geometry">
            <mxRectangle width="90" height="22" as="alternateBounds" />
          </mxGeometry>
        </mxCell>
        <mxCell id="JJnIpTvMjLHZ9RGJ5QC8-121" style="shape=tableRow;horizontal=0;startSize=0;swimlaneHead=0;swimlaneBody=0;fillColor=none;collapsible=0;dropTarget=0;points=[[0,0.5],[1,0.5]];portConstraint=eastwest;top=0;left=0;right=0;bottom=0;" vertex="1" parent="JJnIpTvMjLHZ9RGJ5QC8-117">
          <mxGeometry y="47" width="126" height="22" as="geometry" />
        </mxCell>
        <mxCell id="JJnIpTvMjLHZ9RGJ5QC8-122" value="string" style="shape=partialRectangle;connectable=0;fillColor=none;top=0;left=0;bottom=0;right=0;align=left;spacingLeft=2;overflow=hidden;fontSize=11;" vertex="1" parent="JJnIpTvMjLHZ9RGJ5QC8-121">
          <mxGeometry width="36" height="22" as="geometry">
            <mxRectangle width="36" height="22" as="alternateBounds" />
          </mxGeometry>
        </mxCell>
        <mxCell id="JJnIpTvMjLHZ9RGJ5QC8-123" value="Адрес" style="shape=partialRectangle;connectable=0;fillColor=none;top=0;left=0;bottom=0;right=0;align=left;spacingLeft=2;overflow=hidden;fontSize=11;" vertex="1" parent="JJnIpTvMjLHZ9RGJ5QC8-121">
          <mxGeometry x="36" width="90" height="22" as="geometry">
            <mxRectangle width="90" height="22" as="alternateBounds" />
          </mxGeometry>
        </mxCell>
        <mxCell id="JJnIpTvMjLHZ9RGJ5QC8-124" style="shape=tableRow;horizontal=0;startSize=0;swimlaneHead=0;swimlaneBody=0;fillColor=none;collapsible=0;dropTarget=0;points=[[0,0.5],[1,0.5]];portConstraint=eastwest;top=0;left=0;right=0;bottom=0;" vertex="1" parent="JJnIpTvMjLHZ9RGJ5QC8-117">
          <mxGeometry y="69" width="126" height="22" as="geometry" />
        </mxCell>
        <mxCell id="JJnIpTvMjLHZ9RGJ5QC8-125" value="string" style="shape=partialRectangle;connectable=0;fillColor=none;top=0;left=0;bottom=0;right=0;align=left;spacingLeft=2;overflow=hidden;fontSize=11;" vertex="1" parent="JJnIpTvMjLHZ9RGJ5QC8-124">
          <mxGeometry width="36" height="22" as="geometry">
            <mxRectangle width="36" height="22" as="alternateBounds" />
          </mxGeometry>
        </mxCell>
        <mxCell id="JJnIpTvMjLHZ9RGJ5QC8-126" value="Расчётный счёт" style="shape=partialRectangle;connectable=0;fillColor=none;top=0;left=0;bottom=0;right=0;align=left;spacingLeft=2;overflow=hidden;fontSize=11;" vertex="1" parent="JJnIpTvMjLHZ9RGJ5QC8-124">
          <mxGeometry x="36" width="90" height="22" as="geometry">
            <mxRectangle width="90" height="22" as="alternateBounds" />
          </mxGeometry>
        </mxCell>
        <mxCell id="JJnIpTvMjLHZ9RGJ5QC8-127" value="Грузополучатели" style="shape=table;startSize=25;container=1;collapsible=0;childLayout=tableLayout;fixedRows=1;rowLines=1;fontStyle=1;align=center;resizeLast=1;" vertex="1" parent="1">
          <mxGeometry x="452" y="339" width="126" height="91" as="geometry" />
        </mxCell>
        <mxCell id="JJnIpTvMjLHZ9RGJ5QC8-128" style="shape=tableRow;horizontal=0;startSize=0;swimlaneHead=0;swimlaneBody=0;fillColor=none;collapsible=0;dropTarget=0;points=[[0,0.5],[1,0.5]];portConstraint=eastwest;top=0;left=0;right=0;bottom=0;" vertex="1" parent="JJnIpTvMjLHZ9RGJ5QC8-127">
          <mxGeometry y="25" width="126" height="22" as="geometry" />
        </mxCell>
        <mxCell id="JJnIpTvMjLHZ9RGJ5QC8-129" value="string" style="shape=partialRectangle;connectable=0;fillColor=none;top=0;left=0;bottom=0;right=0;align=left;spacingLeft=2;overflow=hidden;fontSize=11;" vertex="1" parent="JJnIpTvMjLHZ9RGJ5QC8-128">
          <mxGeometry width="36" height="22" as="geometry">
            <mxRectangle width="36" height="22" as="alternateBounds" />
          </mxGeometry>
        </mxCell>
        <mxCell id="JJnIpTvMjLHZ9RGJ5QC8-130" value="Наименование" style="shape=partialRectangle;connectable=0;fillColor=none;top=0;left=0;bottom=0;right=0;align=left;spacingLeft=2;overflow=hidden;fontSize=11;" vertex="1" parent="JJnIpTvMjLHZ9RGJ5QC8-128">
          <mxGeometry x="36" width="90" height="22" as="geometry">
            <mxRectangle width="90" height="22" as="alternateBounds" />
          </mxGeometry>
        </mxCell>
        <mxCell id="JJnIpTvMjLHZ9RGJ5QC8-131" style="shape=tableRow;horizontal=0;startSize=0;swimlaneHead=0;swimlaneBody=0;fillColor=none;collapsible=0;dropTarget=0;points=[[0,0.5],[1,0.5]];portConstraint=eastwest;top=0;left=0;right=0;bottom=0;" vertex="1" parent="JJnIpTvMjLHZ9RGJ5QC8-127">
          <mxGeometry y="47" width="126" height="22" as="geometry" />
        </mxCell>
        <mxCell id="JJnIpTvMjLHZ9RGJ5QC8-132" value="string" style="shape=partialRectangle;connectable=0;fillColor=none;top=0;left=0;bottom=0;right=0;align=left;spacingLeft=2;overflow=hidden;fontSize=11;" vertex="1" parent="JJnIpTvMjLHZ9RGJ5QC8-131">
          <mxGeometry width="36" height="22" as="geometry">
            <mxRectangle width="36" height="22" as="alternateBounds" />
          </mxGeometry>
        </mxCell>
        <mxCell id="JJnIpTvMjLHZ9RGJ5QC8-133" value="Адрес" style="shape=partialRectangle;connectable=0;fillColor=none;top=0;left=0;bottom=0;right=0;align=left;spacingLeft=2;overflow=hidden;fontSize=11;" vertex="1" parent="JJnIpTvMjLHZ9RGJ5QC8-131">
          <mxGeometry x="36" width="90" height="22" as="geometry">
            <mxRectangle width="90" height="22" as="alternateBounds" />
          </mxGeometry>
        </mxCell>
        <mxCell id="JJnIpTvMjLHZ9RGJ5QC8-134" style="shape=tableRow;horizontal=0;startSize=0;swimlaneHead=0;swimlaneBody=0;fillColor=none;collapsible=0;dropTarget=0;points=[[0,0.5],[1,0.5]];portConstraint=eastwest;top=0;left=0;right=0;bottom=0;" vertex="1" parent="JJnIpTvMjLHZ9RGJ5QC8-127">
          <mxGeometry y="69" width="126" height="22" as="geometry" />
        </mxCell>
        <mxCell id="JJnIpTvMjLHZ9RGJ5QC8-135" value="string" style="shape=partialRectangle;connectable=0;fillColor=none;top=0;left=0;bottom=0;right=0;align=left;spacingLeft=2;overflow=hidden;fontSize=11;" vertex="1" parent="JJnIpTvMjLHZ9RGJ5QC8-134">
          <mxGeometry width="36" height="22" as="geometry">
            <mxRectangle width="36" height="22" as="alternateBounds" />
          </mxGeometry>
        </mxCell>
        <mxCell id="JJnIpTvMjLHZ9RGJ5QC8-136" value="Расчётный счёт" style="shape=partialRectangle;connectable=0;fillColor=none;top=0;left=0;bottom=0;right=0;align=left;spacingLeft=2;overflow=hidden;fontSize=11;" vertex="1" parent="JJnIpTvMjLHZ9RGJ5QC8-134">
          <mxGeometry x="36" width="90" height="22" as="geometry">
            <mxRectangle width="90" height="22" as="alternateBounds" />
          </mxGeometry>
        </mxCell>
        <mxCell id="JJnIpTvMjLHZ9RGJ5QC8-137" value="Cargo" style="shape=table;startSize=25;container=1;collapsible=0;childLayout=tableLayout;fixedRows=1;rowLines=1;fontStyle=1;align=center;resizeLast=1;" vertex="1" parent="1">
          <mxGeometry x="100" y="890" width="100" height="91" as="geometry" />
        </mxCell>
        <mxCell id="JJnIpTvMjLHZ9RGJ5QC8-138" style="shape=tableRow;horizontal=0;startSize=0;swimlaneHead=0;swimlaneBody=0;fillColor=none;collapsible=0;dropTarget=0;points=[[0,0.5],[1,0.5]];portConstraint=eastwest;top=0;left=0;right=0;bottom=0;" vertex="1" parent="JJnIpTvMjLHZ9RGJ5QC8-137">
          <mxGeometry y="25" width="100" height="22" as="geometry" />
        </mxCell>
        <mxCell id="JJnIpTvMjLHZ9RGJ5QC8-139" value="string" style="shape=partialRectangle;connectable=0;fillColor=none;top=0;left=0;bottom=0;right=0;align=left;spacingLeft=2;overflow=hidden;fontSize=11;" vertex="1" parent="JJnIpTvMjLHZ9RGJ5QC8-138">
          <mxGeometry width="36" height="22" as="geometry">
            <mxRectangle width="36" height="22" as="alternateBounds" />
          </mxGeometry>
        </mxCell>
        <mxCell id="JJnIpTvMjLHZ9RGJ5QC8-140" value="Name" style="shape=partialRectangle;connectable=0;fillColor=none;top=0;left=0;bottom=0;right=0;align=left;spacingLeft=2;overflow=hidden;fontSize=11;" vertex="1" parent="JJnIpTvMjLHZ9RGJ5QC8-138">
          <mxGeometry x="36" width="64" height="22" as="geometry">
            <mxRectangle width="64" height="22" as="alternateBounds" />
          </mxGeometry>
        </mxCell>
        <mxCell id="JJnIpTvMjLHZ9RGJ5QC8-141" style="shape=tableRow;horizontal=0;startSize=0;swimlaneHead=0;swimlaneBody=0;fillColor=none;collapsible=0;dropTarget=0;points=[[0,0.5],[1,0.5]];portConstraint=eastwest;top=0;left=0;right=0;bottom=0;" vertex="1" parent="JJnIpTvMjLHZ9RGJ5QC8-137">
          <mxGeometry y="47" width="100" height="22" as="geometry" />
        </mxCell>
        <mxCell id="JJnIpTvMjLHZ9RGJ5QC8-142" value="int" style="shape=partialRectangle;connectable=0;fillColor=none;top=0;left=0;bottom=0;right=0;align=left;spacingLeft=2;overflow=hidden;fontSize=11;" vertex="1" parent="JJnIpTvMjLHZ9RGJ5QC8-141">
          <mxGeometry width="36" height="22" as="geometry">
            <mxRectangle width="36" height="22" as="alternateBounds" />
          </mxGeometry>
        </mxCell>
        <mxCell id="JJnIpTvMjLHZ9RGJ5QC8-143" value="Value" style="shape=partialRectangle;connectable=0;fillColor=none;top=0;left=0;bottom=0;right=0;align=left;spacingLeft=2;overflow=hidden;fontSize=11;" vertex="1" parent="JJnIpTvMjLHZ9RGJ5QC8-141">
          <mxGeometry x="36" width="64" height="22" as="geometry">
            <mxRectangle width="64" height="22" as="alternateBounds" />
          </mxGeometry>
        </mxCell>
        <mxCell id="JJnIpTvMjLHZ9RGJ5QC8-144" style="shape=tableRow;horizontal=0;startSize=0;swimlaneHead=0;swimlaneBody=0;fillColor=none;collapsible=0;dropTarget=0;points=[[0,0.5],[1,0.5]];portConstraint=eastwest;top=0;left=0;right=0;bottom=0;" vertex="1" parent="JJnIpTvMjLHZ9RGJ5QC8-137">
          <mxGeometry y="69" width="100" height="22" as="geometry" />
        </mxCell>
        <mxCell id="JJnIpTvMjLHZ9RGJ5QC8-145" value="int" style="shape=partialRectangle;connectable=0;fillColor=none;top=0;left=0;bottom=0;right=0;align=left;spacingLeft=2;overflow=hidden;fontSize=11;" vertex="1" parent="JJnIpTvMjLHZ9RGJ5QC8-144">
          <mxGeometry width="36" height="22" as="geometry">
            <mxRectangle width="36" height="22" as="alternateBounds" />
          </mxGeometry>
        </mxCell>
        <mxCell id="JJnIpTvMjLHZ9RGJ5QC8-146" value="Quantity" style="shape=partialRectangle;connectable=0;fillColor=none;top=0;left=0;bottom=0;right=0;align=left;spacingLeft=2;overflow=hidden;fontSize=11;" vertex="1" parent="JJnIpTvMjLHZ9RGJ5QC8-144">
          <mxGeometry x="36" width="64" height="22" as="geometry">
            <mxRectangle width="64" height="22" as="alternateBounds" />
          </mxGeometry>
        </mxCell>
        <mxCell id="JJnIpTvMjLHZ9RGJ5QC8-147" value="Доставка груза" style="shape=table;startSize=25;container=1;collapsible=0;childLayout=tableLayout;fixedRows=1;rowLines=1;fontStyle=1;align=center;resizeLast=1;" vertex="1" parent="1">
          <mxGeometry x="270" y="597" width="166" height="179" as="geometry" />
        </mxCell>
        <mxCell id="JJnIpTvMjLHZ9RGJ5QC8-148" style="shape=tableRow;horizontal=0;startSize=0;swimlaneHead=0;swimlaneBody=0;fillColor=none;collapsible=0;dropTarget=0;points=[[0,0.5],[1,0.5]];portConstraint=eastwest;top=0;left=0;right=0;bottom=0;" vertex="1" parent="JJnIpTvMjLHZ9RGJ5QC8-147">
          <mxGeometry y="25" width="166" height="22" as="geometry" />
        </mxCell>
        <mxCell id="JJnIpTvMjLHZ9RGJ5QC8-149" value="string" style="shape=partialRectangle;connectable=0;fillColor=none;top=0;left=0;bottom=0;right=0;align=left;spacingLeft=2;overflow=hidden;fontSize=11;" vertex="1" parent="JJnIpTvMjLHZ9RGJ5QC8-148">
          <mxGeometry width="40" height="22" as="geometry">
            <mxRectangle width="40" height="22" as="alternateBounds" />
          </mxGeometry>
        </mxCell>
        <mxCell id="JJnIpTvMjLHZ9RGJ5QC8-150" value="Наименование груза" style="shape=partialRectangle;connectable=0;fillColor=none;top=0;left=0;bottom=0;right=0;align=left;spacingLeft=2;overflow=hidden;fontSize=11;" vertex="1" parent="JJnIpTvMjLHZ9RGJ5QC8-148">
          <mxGeometry x="40" width="126" height="22" as="geometry">
            <mxRectangle width="126" height="22" as="alternateBounds" />
          </mxGeometry>
        </mxCell>
        <mxCell id="JJnIpTvMjLHZ9RGJ5QC8-151" style="shape=tableRow;horizontal=0;startSize=0;swimlaneHead=0;swimlaneBody=0;fillColor=none;collapsible=0;dropTarget=0;points=[[0,0.5],[1,0.5]];portConstraint=eastwest;top=0;left=0;right=0;bottom=0;" vertex="1" parent="JJnIpTvMjLHZ9RGJ5QC8-147">
          <mxGeometry y="47" width="166" height="22" as="geometry" />
        </mxCell>
        <mxCell id="JJnIpTvMjLHZ9RGJ5QC8-152" value="string" style="shape=partialRectangle;connectable=0;fillColor=none;top=0;left=0;bottom=0;right=0;align=left;spacingLeft=2;overflow=hidden;fontSize=11;" vertex="1" parent="JJnIpTvMjLHZ9RGJ5QC8-151">
          <mxGeometry width="40" height="22" as="geometry">
            <mxRectangle width="40" height="22" as="alternateBounds" />
          </mxGeometry>
        </mxCell>
        <mxCell id="JJnIpTvMjLHZ9RGJ5QC8-153" value="Ценность груза" style="shape=partialRectangle;connectable=0;fillColor=none;top=0;left=0;bottom=0;right=0;align=left;spacingLeft=2;overflow=hidden;fontSize=11;" vertex="1" parent="JJnIpTvMjLHZ9RGJ5QC8-151">
          <mxGeometry x="40" width="126" height="22" as="geometry">
            <mxRectangle width="126" height="22" as="alternateBounds" />
          </mxGeometry>
        </mxCell>
        <mxCell id="JJnIpTvMjLHZ9RGJ5QC8-154" style="shape=tableRow;horizontal=0;startSize=0;swimlaneHead=0;swimlaneBody=0;fillColor=none;collapsible=0;dropTarget=0;points=[[0,0.5],[1,0.5]];portConstraint=eastwest;top=0;left=0;right=0;bottom=0;" vertex="1" parent="JJnIpTvMjLHZ9RGJ5QC8-147">
          <mxGeometry y="69" width="166" height="22" as="geometry" />
        </mxCell>
        <mxCell id="JJnIpTvMjLHZ9RGJ5QC8-155" value="int" style="shape=partialRectangle;connectable=0;fillColor=none;top=0;left=0;bottom=0;right=0;align=left;spacingLeft=2;overflow=hidden;fontSize=11;" vertex="1" parent="JJnIpTvMjLHZ9RGJ5QC8-154">
          <mxGeometry width="40" height="22" as="geometry">
            <mxRectangle width="40" height="22" as="alternateBounds" />
          </mxGeometry>
        </mxCell>
        <mxCell id="JJnIpTvMjLHZ9RGJ5QC8-156" value="Количество груза" style="shape=partialRectangle;connectable=0;fillColor=none;top=0;left=0;bottom=0;right=0;align=left;spacingLeft=2;overflow=hidden;fontSize=11;" vertex="1" parent="JJnIpTvMjLHZ9RGJ5QC8-154">
          <mxGeometry x="40" width="126" height="22" as="geometry">
            <mxRectangle width="126" height="22" as="alternateBounds" />
          </mxGeometry>
        </mxCell>
        <mxCell id="JJnIpTvMjLHZ9RGJ5QC8-157" style="shape=tableRow;horizontal=0;startSize=0;swimlaneHead=0;swimlaneBody=0;fillColor=none;collapsible=0;dropTarget=0;points=[[0,0.5],[1,0.5]];portConstraint=eastwest;top=0;left=0;right=0;bottom=0;" vertex="1" parent="JJnIpTvMjLHZ9RGJ5QC8-147">
          <mxGeometry y="91" width="166" height="22" as="geometry" />
        </mxCell>
        <mxCell id="JJnIpTvMjLHZ9RGJ5QC8-158" value="date" style="shape=partialRectangle;connectable=0;fillColor=none;top=0;left=0;bottom=0;right=0;align=left;spacingLeft=2;overflow=hidden;fontSize=11;" vertex="1" parent="JJnIpTvMjLHZ9RGJ5QC8-157">
          <mxGeometry width="40" height="22" as="geometry">
            <mxRectangle width="40" height="22" as="alternateBounds" />
          </mxGeometry>
        </mxCell>
        <mxCell id="JJnIpTvMjLHZ9RGJ5QC8-159" value="Дата погрузки" style="shape=partialRectangle;connectable=0;fillColor=none;top=0;left=0;bottom=0;right=0;align=left;spacingLeft=2;overflow=hidden;fontSize=11;" vertex="1" parent="JJnIpTvMjLHZ9RGJ5QC8-157">
          <mxGeometry x="40" width="126" height="22" as="geometry">
            <mxRectangle width="126" height="22" as="alternateBounds" />
          </mxGeometry>
        </mxCell>
        <mxCell id="JJnIpTvMjLHZ9RGJ5QC8-215" style="shape=tableRow;horizontal=0;startSize=0;swimlaneHead=0;swimlaneBody=0;fillColor=none;collapsible=0;dropTarget=0;points=[[0,0.5],[1,0.5]];portConstraint=eastwest;top=0;left=0;right=0;bottom=0;" vertex="1" parent="JJnIpTvMjLHZ9RGJ5QC8-147">
          <mxGeometry y="113" width="166" height="22" as="geometry" />
        </mxCell>
        <mxCell id="JJnIpTvMjLHZ9RGJ5QC8-216" value="date" style="shape=partialRectangle;connectable=0;fillColor=none;top=0;left=0;bottom=0;right=0;align=left;spacingLeft=2;overflow=hidden;fontSize=11;" vertex="1" parent="JJnIpTvMjLHZ9RGJ5QC8-215">
          <mxGeometry width="40" height="22" as="geometry">
            <mxRectangle width="40" height="22" as="alternateBounds" />
          </mxGeometry>
        </mxCell>
        <mxCell id="JJnIpTvMjLHZ9RGJ5QC8-217" value="Дата доставки" style="shape=partialRectangle;connectable=0;fillColor=none;top=0;left=0;bottom=0;right=0;align=left;spacingLeft=2;overflow=hidden;fontSize=11;" vertex="1" parent="JJnIpTvMjLHZ9RGJ5QC8-215">
          <mxGeometry x="40" width="126" height="22" as="geometry">
            <mxRectangle width="126" height="22" as="alternateBounds" />
          </mxGeometry>
        </mxCell>
        <mxCell id="JJnIpTvMjLHZ9RGJ5QC8-218" style="shape=tableRow;horizontal=0;startSize=0;swimlaneHead=0;swimlaneBody=0;fillColor=none;collapsible=0;dropTarget=0;points=[[0,0.5],[1,0.5]];portConstraint=eastwest;top=0;left=0;right=0;bottom=0;" vertex="1" parent="JJnIpTvMjLHZ9RGJ5QC8-147">
          <mxGeometry y="135" width="166" height="22" as="geometry" />
        </mxCell>
        <mxCell id="JJnIpTvMjLHZ9RGJ5QC8-219" value="string" style="shape=partialRectangle;connectable=0;fillColor=none;top=0;left=0;bottom=0;right=0;align=left;spacingLeft=2;overflow=hidden;fontSize=11;" vertex="1" parent="JJnIpTvMjLHZ9RGJ5QC8-218">
          <mxGeometry width="40" height="22" as="geometry">
            <mxRectangle width="40" height="22" as="alternateBounds" />
          </mxGeometry>
        </mxCell>
        <mxCell id="JJnIpTvMjLHZ9RGJ5QC8-220" value="Сведения о доставке" style="shape=partialRectangle;connectable=0;fillColor=none;top=0;left=0;bottom=0;right=0;align=left;spacingLeft=2;overflow=hidden;fontSize=11;" vertex="1" parent="JJnIpTvMjLHZ9RGJ5QC8-218">
          <mxGeometry x="40" width="126" height="22" as="geometry">
            <mxRectangle width="126" height="22" as="alternateBounds" />
          </mxGeometry>
        </mxCell>
        <mxCell id="JJnIpTvMjLHZ9RGJ5QC8-221" style="shape=tableRow;horizontal=0;startSize=0;swimlaneHead=0;swimlaneBody=0;fillColor=none;collapsible=0;dropTarget=0;points=[[0,0.5],[1,0.5]];portConstraint=eastwest;top=0;left=0;right=0;bottom=0;" vertex="1" parent="JJnIpTvMjLHZ9RGJ5QC8-147">
          <mxGeometry y="157" width="166" height="22" as="geometry" />
        </mxCell>
        <mxCell id="JJnIpTvMjLHZ9RGJ5QC8-222" value="string" style="shape=partialRectangle;connectable=0;fillColor=none;top=0;left=0;bottom=0;right=0;align=left;spacingLeft=2;overflow=hidden;fontSize=11;" vertex="1" parent="JJnIpTvMjLHZ9RGJ5QC8-221">
          <mxGeometry width="40" height="22" as="geometry">
            <mxRectangle width="40" height="22" as="alternateBounds" />
          </mxGeometry>
        </mxCell>
        <mxCell id="JJnIpTvMjLHZ9RGJ5QC8-223" value="Сторона оплаты" style="shape=partialRectangle;connectable=0;fillColor=none;top=0;left=0;bottom=0;right=0;align=left;spacingLeft=2;overflow=hidden;fontSize=11;" vertex="1" parent="JJnIpTvMjLHZ9RGJ5QC8-221">
          <mxGeometry x="40" width="126" height="22" as="geometry">
            <mxRectangle width="126" height="22" as="alternateBounds" />
          </mxGeometry>
        </mxCell>
        <mxCell id="JJnIpTvMjLHZ9RGJ5QC8-163" value="Оплата" style="shape=table;startSize=25;container=1;collapsible=0;childLayout=tableLayout;fixedRows=1;rowLines=1;fontStyle=1;align=center;resizeLast=1;" vertex="1" parent="1">
          <mxGeometry x="600" y="652" width="108" height="69" as="geometry" />
        </mxCell>
        <mxCell id="JJnIpTvMjLHZ9RGJ5QC8-164" style="shape=tableRow;horizontal=0;startSize=0;swimlaneHead=0;swimlaneBody=0;fillColor=none;collapsible=0;dropTarget=0;points=[[0,0.5],[1,0.5]];portConstraint=eastwest;top=0;left=0;right=0;bottom=0;" vertex="1" parent="JJnIpTvMjLHZ9RGJ5QC8-163">
          <mxGeometry y="25" width="108" height="22" as="geometry" />
        </mxCell>
        <mxCell id="JJnIpTvMjLHZ9RGJ5QC8-165" value="float" style="shape=partialRectangle;connectable=0;fillColor=none;top=0;left=0;bottom=0;right=0;align=left;spacingLeft=2;overflow=hidden;fontSize=11;" vertex="1" parent="JJnIpTvMjLHZ9RGJ5QC8-164">
          <mxGeometry width="30" height="22" as="geometry">
            <mxRectangle width="30" height="22" as="alternateBounds" />
          </mxGeometry>
        </mxCell>
        <mxCell id="JJnIpTvMjLHZ9RGJ5QC8-166" value="Стоимость" style="shape=partialRectangle;connectable=0;fillColor=none;top=0;left=0;bottom=0;right=0;align=left;spacingLeft=2;overflow=hidden;fontSize=11;" vertex="1" parent="JJnIpTvMjLHZ9RGJ5QC8-164">
          <mxGeometry x="30" width="78" height="22" as="geometry">
            <mxRectangle width="78" height="22" as="alternateBounds" />
          </mxGeometry>
        </mxCell>
        <mxCell id="JJnIpTvMjLHZ9RGJ5QC8-167" style="shape=tableRow;horizontal=0;startSize=0;swimlaneHead=0;swimlaneBody=0;fillColor=none;collapsible=0;dropTarget=0;points=[[0,0.5],[1,0.5]];portConstraint=eastwest;top=0;left=0;right=0;bottom=0;" vertex="1" parent="JJnIpTvMjLHZ9RGJ5QC8-163">
          <mxGeometry y="47" width="108" height="22" as="geometry" />
        </mxCell>
        <mxCell id="JJnIpTvMjLHZ9RGJ5QC8-168" value="date" style="shape=partialRectangle;connectable=0;fillColor=none;top=0;left=0;bottom=0;right=0;align=left;spacingLeft=2;overflow=hidden;fontSize=11;" vertex="1" parent="JJnIpTvMjLHZ9RGJ5QC8-167">
          <mxGeometry width="30" height="22" as="geometry">
            <mxRectangle width="30" height="22" as="alternateBounds" />
          </mxGeometry>
        </mxCell>
        <mxCell id="JJnIpTvMjLHZ9RGJ5QC8-169" value="Дата оплаты" style="shape=partialRectangle;connectable=0;fillColor=none;top=0;left=0;bottom=0;right=0;align=left;spacingLeft=2;overflow=hidden;fontSize=11;" vertex="1" parent="JJnIpTvMjLHZ9RGJ5QC8-167">
          <mxGeometry x="30" width="78" height="22" as="geometry">
            <mxRectangle width="78" height="22" as="alternateBounds" />
          </mxGeometry>
        </mxCell>
        <mxCell id="JJnIpTvMjLHZ9RGJ5QC8-170" value="has" style="curved=1;startArrow=ERmandOne;startSize=10;;endArrow=ERzeroToMany;endSize=10;;exitX=0.49;exitY=1;entryX=0;entryY=0.28;rounded=0;" edge="1" parent="1" source="JJnIpTvMjLHZ9RGJ5QC8-97" target="JJnIpTvMjLHZ9RGJ5QC8-147">
          <mxGeometry relative="1" as="geometry">
            <Array as="points">
              <mxPoint x="73" y="490" />
            </Array>
          </mxGeometry>
        </mxCell>
        <mxCell id="JJnIpTvMjLHZ9RGJ5QC8-171" value="drives" style="curved=1;startArrow=ERmandOne;startSize=10;;endArrow=ERzeroToMany;endSize=10;;exitX=0.49;exitY=1;entryX=0.49;entryY=0;rounded=0;" edge="1" parent="1" source="JJnIpTvMjLHZ9RGJ5QC8-110" target="JJnIpTvMjLHZ9RGJ5QC8-97">
          <mxGeometry x="0.023" y="2" relative="1" as="geometry">
            <Array as="points" />
            <mxPoint as="offset" />
          </mxGeometry>
        </mxCell>
        <mxCell id="JJnIpTvMjLHZ9RGJ5QC8-172" value="sends" style="curved=1;startArrow=ERmandOne;startSize=10;;endArrow=ERzeroToMany;endSize=10;;exitX=0.5;exitY=1;entryX=0.48;entryY=0;rounded=0;" edge="1" parent="1" source="JJnIpTvMjLHZ9RGJ5QC8-117" target="JJnIpTvMjLHZ9RGJ5QC8-147">
          <mxGeometry relative="1" as="geometry">
            <Array as="points" />
          </mxGeometry>
        </mxCell>
        <mxCell id="JJnIpTvMjLHZ9RGJ5QC8-173" value="receives" style="curved=1;startArrow=ERmandOne;startSize=10;;endArrow=ERzeroToMany;endSize=10;;exitX=0.5;exitY=1;entryX=0.96;entryY=0.29;rounded=0;" edge="1" parent="1" source="JJnIpTvMjLHZ9RGJ5QC8-127" target="JJnIpTvMjLHZ9RGJ5QC8-147">
          <mxGeometry relative="1" as="geometry">
            <Array as="points">
              <mxPoint x="514" y="490" />
            </Array>
          </mxGeometry>
        </mxCell>
      </root>
    </mxGraphModel>
  </diagram>
</mxfile>
